<svg width="129" height="125" viewBox="0 0 129 125" fill="none" xmlns="http://www.w3.org/2000/svg">
<rect width="129" height="125" fill="#E5E5E5"/>
<ellipse cx="64.5" cy="62.5" rx="64.5" ry="62.5" fill="#C4C4C4"/>
<path d="M60.6364 63.4545H67.3636L83.1818 102.091H83.7273L99.5455 63.4545H106.273V110H101V74.6364H100.545L86 110H80.9091L66.3636 74.6364H65.9091V110H60.6364V63.4545Z" fill="black"/>
<g filter="url(#filter0_d_0_1)">
<path d="M51.6364 24.6364C51.2273 21.1818 49.5682 18.5 46.6591 16.5909C43.75 14.6818 40.1818 13.7273 35.9545 13.7273C32.8636 13.7273 30.1591 14.2273 27.8409 15.2273C25.5455 16.2273 23.75 17.6023 22.4545 19.3523C21.1818 21.1023 20.5455 23.0909 20.5455 25.3182C20.5455 27.1818 20.9886 28.7841 21.875 30.125C22.7841 31.4432 23.9432 32.5455 25.3523 33.4318C26.7614 34.2955 28.2386 35.0114 29.7841 35.5795C31.3295 36.125 32.75 36.5682 34.0455 36.9091L41.1364 38.8182C42.9545 39.2955 44.9773 39.9545 47.2045 40.7955C49.4545 41.6364 51.6023 42.7841 53.6477 44.2386C55.7159 45.6705 57.4205 47.5114 58.7614 49.7614C60.1023 52.0114 60.7727 54.7727 60.7727 58.0455C60.7727 61.8182 59.7841 65.2273 57.8068 68.2727C55.8523 71.3182 52.9886 73.7386 49.2159 75.5341C45.4659 77.3295 40.9091 78.2273 35.5455 78.2273C30.5455 78.2273 26.2159 77.4205 22.5568 75.8068C18.9205 74.1932 16.0568 71.9432 13.9659 69.0568C11.8977 66.1705 10.7273 62.8182 10.4545 59H19.1818C19.4091 61.6364 20.2955 63.8182 21.8409 65.5455C23.4091 67.25 25.3864 68.5227 27.7727 69.3636C30.1818 70.1818 32.7727 70.5909 35.5455 70.5909C38.7727 70.5909 41.6705 70.0682 44.2386 69.0227C46.8068 67.9545 48.8409 66.4773 50.3409 64.5909C51.8409 62.6818 52.5909 60.4545 52.5909 57.9091C52.5909 55.5909 51.9432 53.7045 50.6477 52.25C49.3523 50.7955 47.6477 49.6136 45.5341 48.7045C43.4205 47.7955 41.1364 47 38.6818 46.3182L30.0909 43.8636C24.6364 42.2955 20.3182 40.0568 17.1364 37.1477C13.9545 34.2386 12.3636 30.4318 12.3636 25.7273C12.3636 21.8182 13.4205 18.4091 15.5341 15.5C17.6705 12.5682 20.5341 10.2955 24.125 8.68182C27.7386 7.04545 31.7727 6.22727 36.2273 6.22727C40.7273 6.22727 44.7273 7.03409 48.2273 8.64772C51.7273 10.2386 54.5 12.4205 56.5455 15.1932C58.6136 17.9659 59.7045 21.1136 59.8182 24.6364H51.6364Z" fill="black"/>
<path d="M51.6364 24.6364L50.6433 24.754L50.7478 25.6364H51.6364V24.6364ZM46.6591 16.5909L46.1104 17.427L46.1104 17.427L46.6591 16.5909ZM27.8409 15.2273L27.4448 14.3091L27.4415 14.3105L27.8409 15.2273ZM22.4545 19.3523L21.6508 18.7573L21.6458 18.7641L22.4545 19.3523ZM21.875 30.125L21.0408 30.6764L21.0462 30.6846L21.0518 30.6927L21.875 30.125ZM25.3523 33.4318L24.8198 34.2783L24.8297 34.2844L25.3523 33.4318ZM29.7841 35.5795L29.439 36.5182L29.4513 36.5225L29.7841 35.5795ZM34.0455 36.9091L34.3054 35.9435L34.2999 35.942L34.0455 36.9091ZM41.1364 38.8182L40.8764 39.7838L40.8825 39.7854L41.1364 38.8182ZM47.2045 40.7955L46.8513 41.731L46.8545 41.7322L47.2045 40.7955ZM53.6477 44.2386L53.0682 45.0537L53.0785 45.0608L53.6477 44.2386ZM58.7614 49.7614L59.6204 49.2494L59.6204 49.2494L58.7614 49.7614ZM57.8068 68.2727L56.9681 67.7282L56.9652 67.7326L57.8068 68.2727ZM49.2159 75.5341L48.7862 74.6311L48.7841 74.6321L49.2159 75.5341ZM22.5568 75.8068L22.1512 76.7209L22.1533 76.7218L22.5568 75.8068ZM13.9659 69.0568L13.153 69.6393L13.1561 69.6435L13.9659 69.0568ZM10.4545 59V58H9.38057L9.45709 59.0712L10.4545 59ZM19.1818 59L20.1781 58.9141L20.0993 58H19.1818V59ZM21.8409 65.5455L21.0956 66.2123L21.105 66.2225L21.8409 65.5455ZM27.7727 69.3636L27.4404 70.3069L27.4511 70.3105L27.7727 69.3636ZM44.2386 69.0227L44.6157 69.949L44.6227 69.946L44.2386 69.0227ZM50.3409 64.5909L51.1236 65.2133L51.1272 65.2087L50.3409 64.5909ZM50.6477 52.25L51.3945 51.5849L51.3945 51.5849L50.6477 52.25ZM45.5341 48.7045L45.139 49.6232L45.139 49.6232L45.5341 48.7045ZM38.6818 46.3182L38.4071 47.2797L38.4142 47.2817L38.6818 46.3182ZM30.0909 43.8636L29.8146 44.8247L29.8162 44.8252L30.0909 43.8636ZM17.1364 37.1477L16.4616 37.8858L16.4616 37.8858L17.1364 37.1477ZM15.5341 15.5L14.7259 14.9111L14.7251 14.9122L15.5341 15.5ZM24.125 8.68182L24.5349 9.59396L24.5375 9.59277L24.125 8.68182ZM48.2273 8.64772L47.8086 9.55587L47.8135 9.55809L48.2273 8.64772ZM56.5455 15.1932L55.7407 15.7868L55.7439 15.7911L56.5455 15.1932ZM59.8182 24.6364V25.6364H60.851L60.8177 24.6041L59.8182 24.6364ZM52.6294 24.5188C52.1856 20.7708 50.3638 17.826 47.2077 15.7549L46.1104 17.427C48.7726 19.174 50.269 21.5929 50.6433 24.754L52.6294 24.5188ZM47.2077 15.7549C44.1036 13.7178 40.3345 12.7273 35.9545 12.7273V14.7273C40.0291 14.7273 43.3964 15.6459 46.1104 17.427L47.2077 15.7549ZM35.9545 12.7273C32.7572 12.7273 29.9128 13.2444 27.4448 14.3091L28.237 16.1455C30.4054 15.2101 32.9701 14.7273 35.9545 14.7273V12.7273ZM27.4415 14.3105C25.0098 15.3698 23.0653 16.8465 21.6508 18.7573L23.2583 19.9472C24.4347 18.3581 26.0811 17.0847 28.2403 16.1441L27.4415 14.3105ZM21.6458 18.7641C20.2449 20.6903 19.5455 22.8862 19.5455 25.3182H21.5455C21.5455 23.2956 22.1187 21.5142 23.2633 19.9404L21.6458 18.7641ZM19.5455 25.3182C19.5455 27.3459 20.0299 29.1471 21.0408 30.6764L22.7092 29.5736C21.9474 28.4211 21.5455 27.0178 21.5455 25.3182H19.5455ZM21.0518 30.6927C22.0409 32.127 23.3006 33.3226 24.8198 34.2783L25.8847 32.5854C24.5858 31.7683 23.5272 30.7593 22.6982 29.5573L21.0518 30.6927ZM24.8297 34.2844C26.2948 35.1824 27.8315 35.9271 29.439 36.5181L30.1292 34.641C28.6458 34.0956 27.2279 33.4085 25.8748 32.5792L24.8297 34.2844ZM29.4513 36.5225C31.017 37.0752 32.464 37.527 33.791 37.8762L34.2999 35.942C33.036 35.6094 31.642 35.1748 30.1169 34.6366L29.4513 36.5225ZM33.7855 37.8747L40.8764 39.7838L41.3963 37.8526L34.3054 35.9435L33.7855 37.8747ZM40.8825 39.7854C42.6596 40.2519 44.6485 40.8993 46.8513 41.731L47.5578 39.8599C45.3061 39.0098 43.2495 38.339 41.3903 37.8509L40.8825 39.7854ZM46.8545 41.7322C49.0194 42.5413 51.0904 43.6472 53.0682 45.0536L54.2273 43.4237C52.1141 41.921 49.8897 40.7314 47.5546 39.8587L46.8545 41.7322ZM53.0785 45.0608C55.0241 46.4078 56.6316 48.1411 57.9023 50.2733L59.6204 49.2494C58.2093 46.8817 56.4077 44.9331 54.2169 43.4164L53.0785 45.0608ZM57.9023 50.2733C59.1306 52.3342 59.7727 54.9084 59.7727 58.0455H61.7727C61.7727 54.6371 61.074 51.6885 59.6204 49.2494L57.9023 50.2733ZM59.7727 58.0455C59.7727 61.6329 58.8359 64.8514 56.9681 67.7282L58.6456 68.8173C60.7323 65.6032 61.7727 62.0035 61.7727 58.0455H59.7727ZM56.9652 67.7326C55.1262 70.598 52.417 72.9032 48.7862 74.6311L49.6456 76.4371C53.5602 74.5741 56.5783 72.0383 58.6484 68.8129L56.9652 67.7326ZM48.7841 74.6321C45.2021 76.3472 40.8014 77.2273 35.5455 77.2273V79.2273C41.0168 79.2273 45.7297 78.3119 49.6478 76.436L48.7841 74.6321ZM35.5455 77.2273C30.6507 77.2273 26.4647 76.4372 22.9603 74.8918L22.1533 76.7218C25.9671 78.4037 30.4402 79.2273 35.5455 79.2273V77.2273ZM22.9624 74.8928C19.4681 73.3422 16.7515 71.1976 14.7757 68.4702L13.1561 69.6435C15.3621 72.6888 18.3728 75.0442 22.1512 76.7209L22.9624 74.8928ZM14.7788 68.4744C12.8265 65.7498 11.7126 62.5777 11.452 58.9288L9.45709 59.0712C9.7419 63.0587 10.9689 66.5911 13.153 69.6393L14.7788 68.4744ZM10.4545 60H19.1818V58H10.4545V60ZM18.1855 59.0859C18.4286 61.906 19.3859 64.3013 21.0957 66.2122L22.5862 64.8787C21.2051 63.3351 20.3896 61.3667 20.1781 58.9141L18.1855 59.0859ZM21.105 66.2225C22.7939 68.0583 24.9143 69.4167 27.4404 70.3068L28.1051 68.4205C25.8584 67.6288 24.0243 66.4417 22.5768 64.8684L21.105 66.2225ZM27.4511 70.3105C29.9727 71.1669 32.6731 71.5909 35.5455 71.5909V69.5909C32.8723 69.5909 30.3909 69.1967 28.0943 68.4168L27.4511 70.3105ZM35.5455 71.5909C38.8811 71.5909 41.9098 71.0504 44.6157 69.9489L43.8616 68.0965C41.4311 69.0859 38.6644 69.5909 35.5455 69.5909V71.5909ZM44.6227 69.946C47.3228 68.823 49.5031 67.2513 51.1236 65.2133L49.5582 63.9685C48.1787 65.7033 46.2909 67.0861 43.8546 68.0994L44.6227 69.946ZM51.1272 65.2087C52.7727 63.1145 53.5909 60.6669 53.5909 57.9091H51.5909C51.5909 60.2422 50.9091 62.2491 49.5546 63.9731L51.1272 65.2087ZM53.5909 57.9091C53.5909 55.3948 52.8831 53.2563 51.3945 51.5849L49.901 52.9151C51.0033 54.1528 51.5909 55.787 51.5909 57.9091H53.5909ZM51.3945 51.5849C49.9857 50.0031 48.1531 48.7424 45.9292 47.7859L45.139 49.6232C47.1424 50.4849 48.7188 51.5878 49.901 52.9151L51.3945 51.5849ZM45.9292 47.7859C43.77 46.8572 41.4429 46.0473 38.9495 45.3547L38.4142 47.2817C40.8298 47.9527 43.0709 48.7337 45.139 49.6232L45.9292 47.7859ZM38.9565 45.3567L30.3656 42.9021L29.8162 44.8252L38.4071 47.2797L38.9565 45.3567ZM30.3672 42.9026C25.0159 41.3641 20.849 39.1871 17.8111 36.4097L16.4616 37.8858C19.7874 40.9265 24.2568 43.2268 29.8146 44.8247L30.3672 42.9026ZM17.8111 36.4097C14.8567 33.7085 13.3636 30.1797 13.3636 25.7273H11.3636C11.3636 30.684 13.0524 34.7687 16.4616 37.8858L17.8111 36.4097ZM13.3636 25.7273C13.3636 22.01 14.3645 18.811 16.3431 16.0878L14.7251 14.9122C12.4764 18.0072 11.3636 21.6264 11.3636 25.7273H13.3636ZM16.3423 16.0889C18.3676 13.3095 21.0887 11.1426 24.5349 9.59395L23.7151 7.76968C19.9795 9.44833 16.9733 11.8269 14.7259 14.9111L16.3423 16.0889ZM24.5375 9.59277C28.0065 8.02192 31.8975 7.22727 36.2273 7.22727V5.22727C31.648 5.22727 27.4708 6.06898 23.7125 7.77086L24.5375 9.59277ZM36.2273 7.22727C40.6068 7.22727 44.4601 8.01207 47.8086 9.55586L48.646 7.73959C44.9945 6.05611 40.8478 5.22727 36.2273 5.22727V7.22727ZM47.8135 9.55809C51.1766 11.0868 53.8078 13.1666 55.7407 15.7868L57.3502 14.5995C55.1922 11.6743 52.2779 9.39047 48.6411 7.73736L47.8135 9.55809ZM55.7439 15.7911C57.6874 18.3966 58.7115 21.3461 58.8187 24.6686L60.8177 24.6041C60.6976 20.8812 59.5399 17.5352 57.347 14.5953L55.7439 15.7911ZM59.8182 23.6364H51.6364V25.6364H59.8182V23.6364Z" fill="black"/>
</g>
<defs>
<filter id="filter0_d_0_1" x="6.45453" y="6.22726" width="58.3182" height="80" filterUnits="userSpaceOnUse" color-interpolation-filters="sRGB">
<feFlood flood-opacity="0" result="BackgroundImageFix"/>
<feColorMatrix in="SourceAlpha" type="matrix" values="0 0 0 0 0 0 0 0 0 0 0 0 0 0 0 0 0 0 127 0" result="hardAlpha"/>
<feOffset dy="4"/>
<feGaussianBlur stdDeviation="2"/>
<feComposite in2="hardAlpha" operator="out"/>
<feColorMatrix type="matrix" values="0 0 0 0 0 0 0 0 0 0 0 0 0 0 0 0 0 0 0.25 0"/>
<feBlend mode="normal" in2="BackgroundImageFix" result="effect1_dropShadow_0_1"/>
<feBlend mode="normal" in="SourceGraphic" in2="effect1_dropShadow_0_1" result="shape"/>
</filter>
</defs>
</svg>
